<?xml version="1.0" encoding="UTF-8" standalone="no"?>
<!-- Created with Inkscape (http://www.inkscape.org/) -->

<svg
   xmlns:ns0="http://www.iki.fi/pav/software/textext/"
   xmlns:dc="http://purl.org/dc/elements/1.1/"
   xmlns:cc="http://creativecommons.org/ns#"
   xmlns:rdf="http://www.w3.org/1999/02/22-rdf-syntax-ns#"
   xmlns:svg="http://www.w3.org/2000/svg"
   xmlns="http://www.w3.org/2000/svg"
   xmlns:sodipodi="http://sodipodi.sourceforge.net/DTD/sodipodi-0.dtd"
   xmlns:inkscape="http://www.inkscape.org/namespaces/inkscape"
   id="svg3004"
   version="1.1"
   inkscape:version="0.48.4 r9939"
   width="720"
   height="251.25"
   xml:space="preserve"
   sodipodi:docname="sigmoid.eps"><sodipodi:namedview
     pagecolor="#ffffff"
     bordercolor="#666666"
     borderopacity="1"
     objecttolerance="10"
     gridtolerance="10"
     guidetolerance="10"
     inkscape:pageopacity="0"
     inkscape:pageshadow="2"
     inkscape:window-width="1688"
     inkscape:window-height="1027"
     id="namedview3006"
     showgrid="true"
     inkscape:zoom="0.83919825"
     inkscape:cx="-200.55877"
     inkscape:cy="3.6312061"
     inkscape:window-x="230"
     inkscape:window-y="24"
     inkscape:window-maximized="0"
     inkscape:current-layer="g3012"><inkscape:grid
       id="grid3744"
       type="xygrid" /></sodipodi:namedview><metadata
     id="metadata3010"><rdf:RDF><cc:Work
         rdf:about=""><dc:format>image/svg+xml</dc:format><dc:type
           rdf:resource="http://purl.org/dc/dcmitype/StillImage" /><dc:title></dc:title></cc:Work></rdf:RDF></metadata><defs
     id="defs3008"><inkscape:path-effect
       effect="spiro"
       id="path-effect4077"
       is_visible="true" /><inkscape:path-effect
       effect="spiro"
       id="path-effect4046"
       is_visible="true" /><inkscape:path-effect
       effect="spiro"
       id="path-effect4042"
       is_visible="true" /><inkscape:path-effect
       effect="spiro"
       id="path-effect4038"
       is_visible="true" /></defs><g
     id="g3012"
     inkscape:groupmode="layer"
     inkscape:label="ink_ext_XXXXXX"
     transform="matrix(1.25,0,0,-1.25,0,251.25)"><g
       id="g3014"
       transform="scale(0.1,0.1)"><path
         d="m 273,289.5 31.5,0 m 5328.5,0 -31.5,0"
         style="fill:none;stroke:#000000;stroke-opacity:1;stroke-width:5;stroke-linecap:butt;stroke-linejoin:miter;stroke-miterlimit:3.8;stroke-dasharray:none"
         id="path3016" /><g
         id="g3018"
         transform="scale(10,10)"><text
           transform="matrix(1,0,0,-1,10.1887,23.7852)"
           id="text3020"><tspan
             style="fill:#000000;fill-opacity:1;fill-rule:nonzero;stroke:none;font-family:Times New Roman;font-variant:normal;font-weight:normal;font-size:15.5;writing-mode:lr;-inkscape-font-specification:Times New"
             x="0 5.1615"
             y="0"
             sodipodi:role="line"
             id="tspan3022">-1</tspan></text>
</g><path
         d="m 273,662.5 31.5,0 m 5328.5,0 -31.5,0"
         style="fill:none;stroke:#000000;stroke-opacity:1;stroke-width:5;stroke-linecap:butt;stroke-linejoin:miter;stroke-miterlimit:3.8;stroke-dasharray:none"
         id="path3024" /><g
         id="g3026"
         transform="scale(10,10)"><text
           transform="matrix(1,0,0,-1,-1.43633,61.0852)"
           id="text3028"><tspan
             style="fill:#000000;fill-opacity:1;fill-rule:nonzero;stroke:none;font-family:Times New Roman;font-variant:normal;font-weight:normal;font-size:15.5;writing-mode:lr;-inkscape-font-specification:Times New"
             x="0 5.1615 12.9115 16.7865"
             y="0"
             sodipodi:role="line"
             id="tspan3030">-0.5</tspan></text>
</g><path
         d="m 273,1036 31.5,0 m 5328.5,0 -31.5,0"
         style="fill:none;stroke:#000000;stroke-opacity:1;stroke-width:5;stroke-linecap:butt;stroke-linejoin:miter;stroke-miterlimit:3.8;stroke-dasharray:none"
         id="path3032" /><g
         id="g3034"
         transform="scale(10,10)"><text
           transform="matrix(1,0,0,-1,15.35,98.4352)"
           id="text3036"><tspan
             style="fill:#000000;fill-opacity:1;fill-rule:nonzero;stroke:none;font-family:Times New Roman;font-variant:normal;font-weight:normal;font-size:15.5;writing-mode:lr;-inkscape-font-specification:Times New"
             x="0"
             y="0"
             id="tspan3038">0</tspan></text>
</g><path
         d="m 273,1409 31.5,0 m 5328.5,0 -31.5,0"
         style="fill:none;stroke:#000000;stroke-opacity:1;stroke-width:5;stroke-linecap:butt;stroke-linejoin:miter;stroke-miterlimit:3.8;stroke-dasharray:none"
         id="path3040" /><g
         id="g3042"
         transform="scale(10,10)"><text
           transform="matrix(1,0,0,-1,3.725,135.735)"
           id="text3044"><tspan
             style="fill:#000000;fill-opacity:1;fill-rule:nonzero;stroke:none;font-family:Times New Roman;font-variant:normal;font-weight:normal;font-size:15.5;writing-mode:lr;-inkscape-font-specification:Times New"
             x="0 7.75 11.625"
             y="0"
             sodipodi:role="line"
             id="tspan3046">0.5</tspan></text>
</g><path
         d="m 273,1782 31.5,0 m 5328.5,0 -31.5,0"
         style="fill:none;stroke:#000000;stroke-opacity:1;stroke-width:5;stroke-linecap:butt;stroke-linejoin:miter;stroke-miterlimit:3.8;stroke-dasharray:none"
         id="path3048" /><g
         id="g3050"
         transform="scale(10,10)"><text
           transform="matrix(1,0,0,-1,15.35,173.035)"
           id="text3052"><tspan
             style="fill:#000000;fill-opacity:1;fill-rule:nonzero;stroke:none;font-family:Times New Roman;font-variant:normal;font-weight:normal;font-size:15.5;writing-mode:lr;-inkscape-font-specification:Times New"
             x="0"
             y="0"
             id="tspan3054">1</tspan></text>
</g><path
         d="m 809,140 0,31.5 m 0,1760 0,-31.5"
         style="fill:none;stroke:#000000;stroke-opacity:1;stroke-width:5;stroke-linecap:butt;stroke-linejoin:miter;stroke-miterlimit:3.8;stroke-dasharray:none"
         id="path3056" /><g
         id="g3058"
         transform="scale(10,10)"><text
           transform="matrix(1,0,0,-1,74.4445,1.83516)"
           id="text3060"><tspan
             style="fill:#000000;fill-opacity:1;fill-rule:nonzero;stroke:none;font-family:Times New Roman;font-variant:normal;font-weight:normal;font-size:15.5;writing-mode:lr;-inkscape-font-specification:Times New"
             x="0 5.1615"
             y="0"
             sodipodi:role="line"
             id="tspan3062">-4</tspan></text>
</g><path
         d="m 1881,140 0,31.5 m 0,1760 0,-31.5"
         style="fill:none;stroke:#000000;stroke-opacity:1;stroke-width:5;stroke-linecap:butt;stroke-linejoin:miter;stroke-miterlimit:3.8;stroke-dasharray:none"
         id="path3064" /><g
         id="g3066"
         transform="scale(10,10)"><text
           transform="matrix(1,0,0,-1,181.645,1.83516)"
           id="text3068"><tspan
             style="fill:#000000;fill-opacity:1;fill-rule:nonzero;stroke:none;font-family:Times New Roman;font-variant:normal;font-weight:normal;font-size:15.5;writing-mode:lr;-inkscape-font-specification:Times New"
             x="0 5.1615"
             y="0"
             sodipodi:role="line"
             id="tspan3070">-2</tspan></text>
</g><path
         d="m 2953,140 0,31.5 m 0,1760 0,-31.5"
         style="fill:none;stroke:#000000;stroke-opacity:1;stroke-width:5;stroke-linecap:butt;stroke-linejoin:miter;stroke-miterlimit:3.8;stroke-dasharray:none"
         id="path3072" /><g
         id="g3074"
         transform="scale(10,10)"><text
           transform="matrix(1,0,0,-1,293.363,1.83516)"
           id="text3076"><tspan
             style="fill:#000000;fill-opacity:1;fill-rule:nonzero;stroke:none;font-family:Times New Roman;font-variant:normal;font-weight:normal;font-size:15.5;writing-mode:lr;-inkscape-font-specification:Times New"
             x="0"
             y="0"
             id="tspan3078">0</tspan></text>
</g><path
         d="m 4025,140 0,31.5 m 0,1760 0,-31.5"
         style="fill:none;stroke:#000000;stroke-opacity:1;stroke-width:5;stroke-linecap:butt;stroke-linejoin:miter;stroke-miterlimit:3.8;stroke-dasharray:none"
         id="path3080" /><g
         id="g3082"
         transform="scale(10,10)"><text
           transform="matrix(1,0,0,-1,400.563,1.83516)"
           id="text3084"><tspan
             style="fill:#000000;fill-opacity:1;fill-rule:nonzero;stroke:none;font-family:Times New Roman;font-variant:normal;font-weight:normal;font-size:15.5;writing-mode:lr;-inkscape-font-specification:Times New"
             x="0"
             y="0"
             id="tspan3086">2</tspan></text>
</g><path
         d="m 5097,140 0,31.5 m 0,1760 0,-31.5"
         style="fill:none;stroke:#000000;stroke-opacity:1;stroke-width:5;stroke-linecap:butt;stroke-linejoin:miter;stroke-miterlimit:3.8;stroke-dasharray:none"
         id="path3088" /><g
         id="g3090"
         transform="scale(10,10)"><text
           transform="matrix(1,0,0,-1,507.763,1.83516)"
           id="text3092"><tspan
             style="fill:#000000;fill-opacity:1;fill-rule:nonzero;stroke:none;font-family:Times New Roman;font-variant:normal;font-weight:normal;font-size:15.5;writing-mode:lr;-inkscape-font-specification:Times New"
             x="0"
             y="0"
             id="tspan3094">4</tspan></text>
</g><path
         d="m 273,140 5360,0 0,1791.5 -5360,0 0,-1791.5 z"
         style="fill:none;stroke:#000000;stroke-opacity:1;stroke-width:5;stroke-linecap:butt;stroke-linejoin:miter;stroke-miterlimit:3.8;stroke-dasharray:none"
         id="path3096" /><path
         d="m 273,1040.5 54,1 54.5,0.5 54,0.5 54,0.5 54,1 54.5,1 54,1 54,1 54.5,1 54,1.5 54,1 54,2 54.5,1.5 54,2 54,2 54.5,2 54,2.5 54,3 54,3 54.5,3.5 54,3.5 54,4 54.5,4.5 54,4.5 54,5 54,6 54.5,6 54,6.5 54,7.5 54,7.5 54.5,8.5 54,9 54,10 54.5,10.5 54,11 54,12 54,12.5 54.5,13 54,14 54,15 54.5,15.5 54,16 54,16.5 54,17.5 54.5,17.5 54,18 54,18.5 54.5,19 54,18.5 54,19 54,18.5 54.5,19 54,18.5 54,18 54.5,17.5 54,17.5 54,16.5 54,16 54.5,15.5 54,14.5 54,14.5 54.5,13 54,12.5 54,12 54,11 54.5,10.5 54,10 54,9 54.5,8.5 54,7.5 54,7.5 54,6.5 54.5,6 54,5.5 54,5.5 54,4.5 54.5,4.5 54,4 54,3.5 54.5,3.5 54,3 54,2.5 54,2.5 54.5,2.5 54,2 54,2 54.5,1.5 54,1.5 54,1.5 54,1.5 54.5,1 54,1 54,1 54.5,1 54,0.5 54,1 54,0.5 54.5,0.5 54,0.5"
         style="fill:none;stroke:#000000;stroke-opacity:1;stroke-width:2.5;stroke-linecap:butt;stroke-linejoin:miter;stroke-miterlimit:3.8;stroke-dasharray:none"
         id="path3098" /><path
         d="m 273,289.5 487.5,0 54,0.5 162.5,0 54,0.5 54,0 54.5,0.5 54,0.5 54,0.5 54,0.5 54.5,0.5 54,1 54,1 54.5,1.5 54,1.5 54,2 54,2 54.5,3 54,3.5 54,4 54,5.5 54.5,6 54,7.5 54,9 54.5,11 54,13.5 54,16 54,19 54.5,22.5 54,26.5 54,31.5 54.5,36 54,42 54,47 54,53.5 54.5,59 54,64.5 54,68.5 54.5,72.5 54,74.5 54,75.5 54,74.5 54.5,72.5 54,68.5 54,64.5 54.5,59 54,53.5 54,47 54,42 54.5,36 54,31.5 54,26.5 54.5,22.5 54,19 54,16 54,13.5 54.5,11 54,9 54,7.5 54.5,6 54,5.5 54,4 54,3.5 54.5,3 54,2 54,2 54,1.5 54.5,1.5 54,1 54,1 54.5,0.5 54,0.5 54,0.5 54,0.5 54.5,0.5 54,0 54,0.5 162.5,0 54,0.5 487.5,0"
         style="fill:none;stroke:#000000;stroke-opacity:1;stroke-width:2.5;stroke-linecap:butt;stroke-linejoin:miter;stroke-miterlimit:3.8;stroke-dasharray:20,10;stroke-dashoffset:0"
         id="path3100" /><path
         d="m 273,1036 2653,0 54,37.5 54,75.5 54.5,75 54,75.5 54,75.5 54.5,75.5 54,75.5 54,75 54,75.5 54.5,75.5 54,75.5 54,75.5 20.5,28.5"
         style="fill:none;stroke:#000000;stroke-opacity:1;stroke-width:2.5;stroke-linecap:butt;stroke-linejoin:miter;stroke-miterlimit:3.8;stroke-dasharray:10,15;stroke-dashoffset:0"
         id="path3102" /><path
         d="m 273,140 5360,0 0,1791.5 -5360,0 0,-1791.5 z"
         style="fill:none;stroke:#000000;stroke-opacity:1;stroke-width:5;stroke-linecap:butt;stroke-linejoin:miter;stroke-miterlimit:3.8;stroke-dasharray:none"
         id="path3104" /></g><path
       style="fill:none;stroke:#000000;stroke-width:1px;stroke-linecap:butt;stroke-linejoin:miter;stroke-opacity:1"
       d="M 355.69664,191.07352 332.46018,164.26221"
       id="path4040"
       inkscape:path-effect="#path-effect4042"
       inkscape:original-d="m 355.69664,191.07352 c -7.36715,-11.16801 -16.94321,-17.37143 -23.23646,-26.81131"
       inkscape:connector-curvature="0"
       transform="matrix(0.8,0,0,-0.8,0,201)" /><path
       style="fill:none;stroke:#000000;stroke-width:1px;stroke-linecap:butt;stroke-linejoin:miter;stroke-opacity:1"
       d="M 499.28607,52.846347 437.91797,24.843429"
       id="path4044"
       inkscape:path-effect="#path-effect4046"
       inkscape:original-d="M 499.28607,52.846347 C 477.57421,37.711853 459.03687,31.883061 437.91797,24.843429"
       inkscape:connector-curvature="0"
       transform="matrix(0.8,0,0,-0.8,0,201)" /><path
       sodipodi:type="arc"
       style="fill:#000000;stroke-width:0.31799999;stroke-miterlimit:4;stroke-dasharray:none;stroke-dashoffset:0"
       id="path4048"
       sodipodi:cx="176.35881"
       sodipodi:cy="109.7459"
       sodipodi:rx="4.7664542"
       sodipodi:ry="5.0643573"
       d="m 181.12526,109.7459 c 0,2.79697 -2.13401,5.06436 -4.76645,5.06436 -2.63244,0 -4.76645,-2.26739 -4.76645,-5.06436 0,-2.79696 2.13401,-5.06435 4.76645,-5.06435 2.63244,0 4.76645,2.26739 4.76645,5.06435 z"
       transform="matrix(0.8,0,0,-0.8,52.430995,201.47665)" /><path
       transform="matrix(0.8,0,0,-0.8,209.24733,268.92198)"
       sodipodi:type="arc"
       style="fill:#000000;stroke-width:0.31799999;stroke-miterlimit:4;stroke-dasharray:none;stroke-dashoffset:0"
       id="path4048-8"
       sodipodi:cx="176.35881"
       sodipodi:cy="109.7459"
       sodipodi:rx="4.7664542"
       sodipodi:ry="5.0643573"
       d="m 181.12526,109.7459 c 0,2.79697 -2.13401,5.06436 -4.76645,5.06436 -2.63244,0 -4.76645,-2.26739 -4.76645,-5.06436 0,-2.79696 2.13401,-5.06435 4.76645,-5.06435 2.63244,0 4.76645,2.26739 4.76645,5.06435 z" /><path
       transform="matrix(0.8,0,0,-0.8,126.31103,156.43366)"
       sodipodi:type="arc"
       style="fill:#000000;stroke-width:0.31799999;stroke-miterlimit:4;stroke-dasharray:none;stroke-dashoffset:0"
       id="path4048-7"
       sodipodi:cx="176.35881"
       sodipodi:cy="109.7459"
       sodipodi:rx="4.7664542"
       sodipodi:ry="5.0643573"
       d="m 181.12526,109.7459 c 0,2.79697 -2.13401,5.06436 -4.76645,5.06436 -2.63244,0 -4.76645,-2.26739 -4.76645,-5.06436 0,-2.79696 2.13401,-5.06435 4.76645,-5.06435 2.63244,0 4.76645,2.26739 4.76645,5.06435 z" /><path
       style="fill:none;stroke:#000000;stroke-width:1px;stroke-linecap:butt;stroke-linejoin:miter;stroke-opacity:1"
       d="m 232.96045,92.7654 8.34129,15.49098"
       id="path4075"
       inkscape:path-effect="#path-effect4077"
       inkscape:original-d="m 232.96045,92.7654 c 3.13092,6.554243 6.62141,10.33134 8.34129,15.49098"
       inkscape:connector-curvature="0"
       transform="matrix(0.8,0,0,-0.8,0,201)" /><g
       style="font-style:normal;font-variant:normal;font-weight:normal;font-stretch:normal;letter-spacing:normal;word-spacing:normal;text-anchor:start;fill:none;stroke:#000000;stroke-linecap:butt;stroke-linejoin:miter;stroke-miterlimit:10.43299961;stroke-opacity:1;stroke-dasharray:none;stroke-dashoffset:0"
       ns0:preamble=""
       ns0:text="$z=\\tanh(u)$"
       text-anchor="start"
       word-spacing="normal"
       letter-spacing="normal"
       font-size-adjust="none"
       font-stretch="normal"
       font-weight="normal"
       font-variant="normal"
       font-style="normal"
       fill-opacity="1"
       fill-rule="evenodd"
       fill="none"
       stroke-opacity="1"
       stroke-dashoffset="0"
       stroke-dasharray="none"
       stroke-miterlimit="10.433"
       stroke-linejoin="miter"
       stroke-linecap="butt"
       stroke="black"
       xml:space="preserve"
       transform="matrix(2,0,0,2,-160.24736,-1370.3752)"
       id="g3404"><path
         id="path3406"
         fill="black"
         stroke-width="0"
         d="M224.76,707.95 L224.8,708 L224.85,708.05 L224.9,708.1 L224.95,708.15 L224.99,708.2 L225.03,708.24 L225.08,708.28 L225.12,708.33 L225.16,708.37 L225.2,708.41 L225.23,708.44 L225.27,708.48 L225.31,708.52 L225.34,708.55 L225.41,708.62 L225.48,708.68 L225.55,708.74 L225.61,708.8 L225.68,708.86 L225.81,708.97 L225.87,709.02 L225.94,709.08 C225.94,709.09,226.56,709.62,226.91,709.98 C227.86,710.9,228.08,711.38,228.08,711.42 C228.08,711.52,227.99,711.52,227.97,711.52 C227.9,711.52,227.87,711.5,227.82,711.41 C227.52,710.93,227.31,710.77,227.07,710.77 C226.84,710.77,226.71,710.92,226.57,711.09 C226.38,711.32,226.21,711.52,225.88,711.52 C225.13,711.52,224.68,710.59,224.68,710.38 C224.68,710.33,224.71,710.27,224.79,710.27 C224.88,710.27,224.9,710.32,224.92,710.38 C225.11,710.84,225.69,710.85,225.77,710.85 C225.98,710.85,226.17,710.78,226.4,710.7 C226.79,710.55,226.9,710.55,227.16,710.55 C226.8,710.12,225.97,709.41,225.78,709.25 L224.88,708.42 C224.21,707.75,223.86,707.18,223.86,707.11 C223.86,707.02,223.96,707.02,223.98,707.02 C224.06,707.02,224.08,707.04,224.14,707.15 C224.37,707.49,224.67,707.76,224.98,707.76 C225.21,707.76,225.31,707.67,225.56,707.38 C225.73,707.17,225.91,707.02,226.2,707.02 C227.18,707.02,227.76,708.28,227.76,708.55 C227.76,708.59,227.72,708.65,227.64,708.65 C227.55,708.65,227.53,708.59,227.5,708.52 C227.27,707.87,226.64,707.68,226.31,707.68 C226.11,707.68,225.93,707.74,225.72,707.81 C225.38,707.94,225.23,707.98,225.02,707.98 C225,707.98,224.85,707.98,224.76,707.95 Z " /><path
         id="path3408"
         fill="black"
         stroke-width="0"
         d="M238.11,710.37 L238.13,710.37 L238.16,710.37 L238.19,710.37 L238.21,710.38 L238.22,710.38 L238.24,710.38 L238.25,710.38 L238.26,710.38 L238.28,710.38 L238.29,710.39 L238.31,710.39 L238.32,710.39 L238.33,710.4 L238.34,710.4 L238.35,710.41 L238.37,710.41 L238.38,710.42 L238.39,710.43 L238.4,710.44 L238.4,710.45 L238.41,710.46 L238.42,710.46 L238.42,710.47 L238.42,710.47 L238.43,710.48 L238.43,710.49 L238.43,710.49 L238.43,710.5 L238.44,710.51 L238.44,710.51 L238.44,710.52 L238.44,710.53 L238.44,710.54 L238.44,710.55 L238.44,710.55 L238.44,710.56 L238.44,710.57 C238.44,710.77,238.26,710.77,238.12,710.77 H232.16 C232.02,710.77,231.83,710.77,231.83,710.57 C231.83,710.37,232.02,710.37,232.17,710.37 Z " /><path
         id="path3410"
         fill="black"
         stroke-width="0"
         d="M238.12,708.45 L238.13,708.45 L238.14,708.45 L238.17,708.45 L238.2,708.45 L238.21,708.45 L238.23,708.45 L238.24,708.45 L238.25,708.45 L238.27,708.45 L238.28,708.46 L238.29,708.46 L238.31,708.46 L238.32,708.47 L238.33,708.47 L238.34,708.48 L238.36,708.48 L238.37,708.49 L238.38,708.49 L238.39,708.5 L238.4,708.51 L238.4,708.52 L238.41,708.52 L238.41,708.53 L238.42,708.54 L238.42,708.54 L238.42,708.55 L238.43,708.55 L238.43,708.56 L238.43,708.57 L238.43,708.57 L238.44,708.58 L238.44,708.59 L238.44,708.59 L238.44,708.6 L238.44,708.61 L238.44,708.62 L238.44,708.63 L238.44,708.64 L238.44,708.65 C238.44,708.84,238.26,708.84,238.11,708.84 H232.17 C232.02,708.84,231.83,708.84,231.83,708.65 C231.83,708.45,232.02,708.45,232.16,708.45 Z " /><path
         id="path3412"
         fill="black"
         stroke-width="0"
         d="M243.51,711.1 H244.93 V711.41 H243.51 V713.23 H243.26 C243.25,712.42,242.95,711.36,241.98,711.32 V711.1 H242.82 V708.36 C242.82,707.14,243.75,707.02,244.11,707.02 C244.81,707.02,245.09,707.72,245.09,708.36 V708.92 H244.84 V708.38 C244.84,707.64,244.54,707.26,244.18,707.26 C243.51,707.26,243.51,708.17,243.51,708.34 Z " /><path
         id="path3414"
         fill="black"
         stroke-width="0"
         d="M248.98,707.88 L248.98,707.84 L248.99,707.81 L248.99,707.77 L249,707.73 L249.01,707.69 L249.02,707.66 L249.04,707.62 L249.05,707.59 L249.06,707.55 L249.08,707.52 L249.1,707.48 L249.12,707.45 L249.14,707.42 L249.16,707.38 L249.18,707.35 L249.2,707.32 L249.23,707.3 L249.26,707.27 L249.28,707.24 L249.31,707.22 L249.34,707.2 L249.37,707.17 L249.41,707.15 L249.44,707.14 L249.48,707.12 L249.51,707.11 L249.55,707.09 L249.59,707.08 L249.63,707.08 L249.67,707.07 L249.71,707.07 L249.75,707.07 C249.96,707.07,250.57,707.2,250.57,708.01 V708.57 H250.32 V708.01 C250.32,707.43,250.07,707.37,249.96,707.37 C249.63,707.37,249.59,707.82,249.59,707.87 V709.86 C249.59,710.27,249.59,710.66,249.24,711.03 C248.85,711.42,248.35,711.58,247.87,711.58 C247.06,711.58,246.37,711.11,246.37,710.45 C246.37,710.16,246.57,709.99,246.83,709.99 C247.11,709.99,247.29,710.18,247.29,710.44 C247.29,710.56,247.24,710.89,246.78,710.9 C247.05,711.25,247.53,711.36,247.85,711.36 C248.34,711.36,248.91,710.97,248.91,710.09 V709.72 V709.51 V708.52 C248.91,707.57,248.19,707.23,247.74,707.23 C247.26,707.23,246.85,707.58,246.85,708.08 C246.85,708.62,247.27,709.45,248.91,709.51 H248.91 V709.72 C248.4,709.69,247.7,709.66,247.08,709.36 C246.33,709.02,246.08,708.51,246.08,708.07 C246.08,707.26,247.05,707.02,247.67,707.02 C248.33,707.02,248.79,707.41,248.98,707.88 Z " /><path
         id="path3416"
         fill="black"
         stroke-width="0"
         d="M251.74,710.54 V707.88 C251.74,707.43,251.63,707.43,250.96,707.43 V707.12 C251.31,707.14,251.82,707.16,252.09,707.16 C252.35,707.16,252.86,707.14,253.2,707.12 V707.43 C252.54,707.43,252.43,707.43,252.43,707.88 V709.71 C252.43,710.74,253.13,711.3,253.77,711.3 C254.4,711.3,254.51,710.76,254.51,710.2 V707.88 C254.51,707.43,254.4,707.43,253.73,707.43 V707.12 C254.08,707.14,254.59,707.16,254.85,707.16 C255.11,707.16,255.63,707.14,255.97,707.12 V707.43 C255.45,707.43,255.2,707.43,255.19,707.73 V709.63 C255.19,710.48,255.19,710.79,254.88,711.15 C254.74,711.32,254.42,711.52,253.84,711.52 C253.11,711.52,252.65,711.09,252.37,710.47 V711.52 L250.96,711.41 V711.1 C251.66,711.1,251.74,711.03,251.74,710.54 Z " /><path
         id="path3418"
         fill="black"
         stroke-width="0"
         d="M257.27,707.88 L257.27,707.86 L257.27,707.84 L257.27,707.8 L257.27,707.77 L257.27,707.73 L257.27,707.7 L257.26,707.67 L257.25,707.65 L257.25,707.62 L257.24,707.6 L257.23,707.58 L257.22,707.56 L257.21,707.54 L257.19,707.53 L257.17,707.51 L257.16,707.5 L257.14,707.49 L257.11,707.48 L257.09,707.47 L257.07,707.46 L257.04,707.46 L257.01,707.45 L256.97,707.45 L256.94,707.44 L256.9,707.44 L256.88,707.44 L256.86,707.44 L256.84,707.44 L256.82,707.44 L256.8,707.44 L256.77,707.43 L256.75,707.43 L256.72,707.43 L256.7,707.43 L256.67,707.43 L256.65,707.43 L256.62,707.43 L256.59,707.43 L256.56,707.43 L256.53,707.43 L256.5,707.43 V707.12 C256.85,707.14,257.35,707.16,257.62,707.16 C257.88,707.16,258.4,707.14,258.74,707.12 V707.43 C258.07,707.43,257.96,707.43,257.96,707.88 V709.71 C257.96,710.74,258.67,711.3,259.3,711.3 C259.93,711.3,260.04,710.76,260.04,710.2 V707.88 C260.04,707.43,259.93,707.43,259.27,707.43 V707.12 C259.61,707.14,260.12,707.16,260.39,707.16 C260.65,707.16,261.17,707.14,261.5,707.12 V707.43 C260.99,707.43,260.74,707.43,260.73,707.73 V709.63 C260.73,710.48,260.73,710.79,260.42,711.15 C260.28,711.32,259.95,711.52,259.37,711.52 C258.54,711.52,258.1,710.92,257.93,710.54 V714.02 L256.5,713.91 V713.6 C257.2,713.6,257.27,713.53,257.27,713.05 Z " /><path
         id="path3420"
         fill="black"
         stroke-width="0"
         d="M265.01,704.74 L265.01,704.75 L265.01,704.75 L265.01,704.75 L265.01,704.76 L265.01,704.76 L265.01,704.76 L265.01,704.77 L265,704.77 L265,704.77 L265,704.78 L265,704.78 L264.99,704.79 L264.99,704.79 L264.99,704.8 L264.98,704.8 L264.98,704.81 L264.97,704.82 L264.97,704.82 L264.96,704.83 L264.96,704.83 L264.96,704.84 L264.95,704.84 L264.95,704.84 L264.95,704.85 L264.94,704.85 L264.94,704.86 L264.93,704.86 L264.93,704.87 L264.92,704.87 L264.92,704.88 L264.91,704.88 L264.91,704.89 L264.9,704.9 L264.9,704.9 L264.89,704.91 L264.88,704.92 L264.88,704.92 L264.87,704.93 L264.86,704.94 L264.86,704.94 L264.85,704.95 L264.84,704.96 C263.6,706.21,263.28,708.09,263.28,709.61 C263.28,711.34,263.66,713.07,264.88,714.31 C265.01,714.43,265.01,714.45,265.01,714.48 C265.01,714.55,264.97,714.58,264.91,714.58 C264.81,714.58,263.91,713.9,263.33,712.64 C262.82,711.55,262.7,710.44,262.7,709.61 C262.7,708.83,262.81,707.63,263.36,706.51 C263.95,705.29,264.81,704.64,264.91,704.64 C264.97,704.64,265.01,704.67,265.01,704.74 Z " /><path
         id="path3422"
         fill="black"
         stroke-width="0"
         d="M269.07,707.68 L269.08,707.64 L269.09,707.61 L269.11,707.57 L269.12,707.54 L269.14,707.5 L269.15,707.47 L269.17,707.44 L269.19,707.41 L269.21,707.38 L269.24,707.35 L269.26,707.32 L269.28,707.29 L269.31,707.27 L269.34,707.24 L269.36,707.22 L269.39,707.2 L269.42,707.17 L269.45,707.16 L269.48,707.14 L269.52,707.12 L269.55,707.1 L269.58,707.09 L269.62,707.07 L269.65,707.06 L269.69,707.05 L269.72,707.04 L269.76,707.03 L269.8,707.03 L269.84,707.02 L269.88,707.02 L269.92,707.02 L269.95,707.02 C270.3,707.02,270.53,707.24,270.69,707.56 C270.86,707.92,270.99,708.53,270.99,708.55 C270.99,708.65,270.9,708.65,270.87,708.65 C270.77,708.65,270.76,708.6,270.73,708.47 C270.59,707.91,270.4,707.23,269.98,707.23 C269.78,707.23,269.68,707.36,269.68,707.69 C269.68,707.91,269.8,708.38,269.88,708.72 L270.15,709.8 C270.18,709.95,270.28,710.32,270.32,710.47 C270.37,710.7,270.47,711.08,270.47,711.14 C270.47,711.32,270.33,711.41,270.18,711.41 C270.13,711.41,269.88,711.4,269.8,711.06 C269.61,710.33,269.17,708.59,269.05,708.07 C269.04,708.03,268.64,707.23,267.92,707.23 C267.4,707.23,267.3,707.68,267.3,708.05 C267.3,708.6,267.58,709.39,267.83,710.08 C267.95,710.37,268.01,710.51,268.01,710.7 C268.01,711.15,267.69,711.52,267.19,711.52 C266.24,711.52,265.88,710.08,265.88,709.99 C265.88,709.89,265.98,709.89,265.99,709.89 C266.09,709.89,266.1,709.91,266.15,710.07 C266.4,710.93,266.78,711.3,267.16,711.3 C267.25,711.3,267.41,711.29,267.41,710.97 C267.41,710.73,267.3,710.44,267.24,710.29 C266.87,709.31,266.66,708.69,266.66,708.21 C266.66,707.26,267.35,707.02,267.89,707.02 C268.54,707.02,268.9,707.46,269.07,707.68 Z " /><path
         id="path3424"
         fill="black"
         stroke-width="0"
         d="M274.17,709.61 L274.16,709.68 L274.16,709.76 L274.16,709.84 L274.16,709.92 L274.15,710.09 L274.14,710.26 L274.12,710.44 L274.1,710.63 L274.07,710.83 L274.04,711.03 L274,711.23 L273.96,711.44 L273.9,711.65 L273.84,711.86 L273.77,712.07 L273.69,712.28 L273.65,712.39 L273.61,712.5 L273.56,712.6 L273.51,712.71 C272.91,713.93,272.06,714.58,271.96,714.58 C271.9,714.58,271.86,714.54,271.86,714.48 C271.86,714.45,271.86,714.43,272.05,714.25 C273.02,713.26,273.59,711.68,273.59,709.61 C273.59,707.91,273.22,706.16,271.99,704.91 C271.86,704.79,271.86,704.77,271.86,704.74 C271.86,704.68,271.9,704.64,271.96,704.64 C272.06,704.64,272.95,705.32,273.54,706.58 C274.05,707.67,274.17,708.77,274.17,709.61 Z " /></g><g
       id="content"
       transform="matrix(2,0,0,2,-333.22756,-1255.5865)"
       xml:space="preserve"
       stroke-miterlimit="10.433"
       font-style="normal"
       font-variant="normal"
       font-weight="normal"
       font-stretch="normal"
       font-size-adjust="none"
       letter-spacing="normal"
       word-spacing="normal"
       ns0:text="$z=\\displaystyle\\frac{1}{1+\\exp(-u)}$"
       ns0:preamble=""
       style="font-style:normal;font-variant:normal;font-weight:normal;font-stretch:normal;letter-spacing:normal;word-spacing:normal;text-anchor:start;fill:none;stroke:#000000;stroke-linecap:butt;stroke-linejoin:miter;stroke-miterlimit:10.43299961;stroke-opacity:1;stroke-dasharray:none;stroke-dashoffset:0"><path
         style="fill:#000000;stroke-width:0"
         inkscape:connector-curvature="0"
         d="m 224.76,704.75 0.04,0.06 0.05,0.05 0.05,0.05 0.05,0.04 0.04,0.05 0.04,0.04 0.05,0.05 0.04,0.04 0.04,0.04 0.04,0.04 0.03,0.04 0.04,0.03 0.04,0.04 0.03,0.03 0.07,0.07 0.07,0.06 0.07,0.06 0.06,0.06 0.07,0.06 0.13,0.11 0.06,0.06 0.07,0.06 c 0,0.01 0.62,0.53 0.97,0.89 0.95,0.92 1.17,1.4 1.17,1.44 0,0.1 -0.09,0.1 -0.11,0.1 -0.07,0 -0.1,-0.02 -0.15,-0.11 -0.3,-0.48 -0.51,-0.64 -0.75,-0.64 -0.23,0 -0.36,0.15 -0.5,0.32 -0.19,0.23 -0.36,0.43 -0.69,0.43 -0.75,0 -1.2,-0.92 -1.2,-1.13 0,-0.05 0.03,-0.11 0.11,-0.11 0.09,0 0.11,0.05 0.13,0.11 0.19,0.45 0.77,0.46 0.85,0.46 0.21,0 0.4,-0.07 0.63,-0.15 0.39,-0.15 0.5,-0.15 0.76,-0.15 -0.36,-0.42 -1.19,-1.14 -1.38,-1.3 l -0.9,-0.83 c -0.67,-0.67 -1.02,-1.23 -1.02,-1.3 0,-0.1 0.1,-0.1 0.12,-0.1 0.08,0 0.1,0.02 0.16,0.13 0.23,0.34 0.53,0.61 0.84,0.61 0.23,0 0.33,-0.09 0.58,-0.37 0.17,-0.21 0.35,-0.37 0.64,-0.37 0.98,0 1.56,1.26 1.56,1.53 0,0.05 -0.04,0.1 -0.12,0.1 -0.09,0 -0.11,-0.06 -0.14,-0.13 -0.23,-0.65 -0.86,-0.84 -1.19,-0.84 -0.2,0 -0.38,0.06 -0.59,0.13 -0.34,0.13 -0.49,0.17 -0.7,0.17 -0.02,0 -0.17,0 -0.26,-0.03 z"
         id="path3619" /><path
         style="fill:#000000;stroke-width:0"
         inkscape:connector-curvature="0"
         d="m 238.11,707.18 0.02,0 0.03,0 0.03,0 0.02,0 0.01,0 0.02,0 0.01,0 0.01,0 0.02,0.01 0.01,0 0.02,0 0.01,0.01 0.01,0 0.01,0.01 0.01,0 0.02,0.01 0.01,0 0.01,0.01 0.01,0.01 0,0.01 0.01,0.01 0.01,0.01 0,0 0,0.01 0.01,0 0,0.01 0,0.01 0,0 0.01,0.01 0,0.01 0,0 0,0.01 0,0.01 0,0.01 0,0.01 0,0.01 0,0.01 c 0,0.19 -0.18,0.19 -0.32,0.19 h -5.96 c -0.14,0 -0.33,0 -0.33,-0.19 0,-0.2 0.19,-0.2 0.34,-0.2 z"
         id="path3621" /><path
         style="fill:#000000;stroke-width:0"
         inkscape:connector-curvature="0"
         d="m 238.12,705.25 0.01,0 0.01,0 0.03,0 0.03,0 0.01,0 0.02,0 0.01,0 0.01,0.01 0.02,0 0.01,0 0.01,0 0.02,0.01 0.01,0 0.01,0 0.01,0.01 0.02,0 0.01,0.01 0.01,0.01 0.01,0.01 0.01,0 0,0.01 0.01,0.01 0,0 0.01,0.01 0,0 0,0.01 0.01,0.01 0,0 0,0.01 0,0.01 0.01,0 0,0.01 0,0.01 0,0 0,0.01 0,0.01 0,0.01 0,0.01 0,0.01 c 0,0.2 -0.18,0.2 -0.33,0.2 h -5.94 c -0.15,0 -0.34,0 -0.34,-0.2 0,-0.2 0.19,-0.2 0.33,-0.2 z"
         id="path3623" /><path
         style="fill:#000000;stroke-width:0"
         inkscape:connector-curvature="0"
         d="m 270.21,717.03 0,0.01 0,0.01 0,0.01 0,0.01 0,0.01 0,0.01 0,0.01 0,0 0,0.01 0,0.01 -0.01,0.01 0,0.01 0,0 0,0.01 0,0.01 0,0.01 0,0 0,0.01 0,0.01 0,0.01 -0.01,0.01 0,0.01 0,0.01 -0.01,0.01 0,0 -0.01,0.01 0,0 -0.01,0.01 -0.01,0 -0.01,0.01 0,0 -0.01,0 0,0 -0.01,0 0,0.01 -0.01,0 -0.01,0 0,0 -0.01,0 -0.01,0 0,0 -0.01,0 -0.01,0 -0.01,0 -0.01,0 0,0 -0.01,0 -0.01,0 -0.01,0 -0.01,0 -0.01,0 -0.01,0 c -0.62,-0.63 -1.5,-0.63 -1.81,-0.63 v -0.31 c 0.19,0 0.78,0 1.3,0.26 v -5.15 c 0,-0.36 -0.03,-0.48 -0.92,-0.48 h -0.32 v -0.3 c 0.34,0.03 1.21,0.03 1.61,0.03 0.4,0 1.26,0 1.61,-0.03 v 0.3 h -0.32 c -0.89,0 -0.92,0.11 -0.92,0.48 z"
         id="path3625" /><line
         style="stroke-width:0.398"
         x1="242.98"
         y1="706.41998"
         x2="296.56"
         y2="706.41998"
         id="line3627" /><path
         style="fill:#000000;stroke-width:0"
         inkscape:connector-curvature="0"
         d="m 245.91,703.45 0,0.01 0,0.01 0,0.01 0,0.01 0,0.01 0,0.01 0,0.01 0,0.01 0,0.01 0,0.01 0,0.01 0,0 0,0.01 -0.01,0.01 0,0.01 0,0 0,0.01 0,0.01 0,0.01 0,0.01 -0.01,0.01 0,0.01 0,0.01 -0.01,0 0,0.01 -0.01,0.01 0,0 -0.01,0.01 -0.01,0 -0.01,0 0,0.01 -0.01,0 0,0 -0.01,0 0,0 -0.01,0 -0.01,0 0,0.01 -0.01,0 -0.01,0 0,0 -0.01,0 -0.01,0 -0.01,0 0,0 -0.01,0 -0.01,0 -0.01,0 -0.01,0 -0.01,0 -0.01,0 -0.01,0 c -0.62,-0.64 -1.49,-0.64 -1.81,-0.64 v -0.3 c 0.2,0 0.78,0 1.3,0.26 v -5.15 c 0,-0.36 -0.03,-0.48 -0.92,-0.48 h -0.32 v -0.31 c 0.34,0.03 1.21,0.03 1.61,0.03 0.4,0 1.26,0 1.61,-0.03 v 0.31 h -0.32 c -0.89,0 -0.92,0.11 -0.92,0.48 z"
         id="path3629" /><path
         style="fill:#000000;stroke-width:0"
         inkscape:connector-curvature="0"
         d="m 254.24,699.38 h 2.78 c 0.14,0 0.33,0 0.33,0.2 0,0.2 -0.19,0.2 -0.33,0.2 h -2.78 v 2.78 c 0,0.14 0,0.33 -0.2,0.33 -0.19,0 -0.19,-0.19 -0.19,-0.33 v -2.78 h -2.79 c -0.14,0 -0.33,0 -0.33,-0.2 0,-0.2 0.19,-0.2 0.33,-0.2 h 2.79 v -2.78 c 0,-0.14 0,-0.33 0.19,-0.33 0.2,0 0.2,0.19 0.2,0.33 z"
         id="path3631" /><path
         style="fill:#000000;stroke-width:0"
         inkscape:connector-curvature="0"
         d="m 261.24,699.39 0.01,0.21 c 0.06,1.48 0.89,1.73 1.23,1.73 1.03,0 1.13,-1.35 1.13,-1.73 h -2.36 l -0.01,-0.21 h 2.78 c 0.21,0 0.24,0 0.24,0.21 0,0.98 -0.53,1.94 -1.78,1.94 -1.15,0 -2.07,-1.02 -2.07,-2.26 0,-1.33 1.05,-2.3 2.19,-2.3 1.22,0 1.66,1.11 1.66,1.3 0,0.1 -0.08,0.12 -0.12,0.12 -0.09,0 -0.11,-0.06 -0.13,-0.14 -0.35,-1.03 -1.25,-1.03 -1.35,-1.03 -0.49,0 -0.89,0.3 -1.12,0.67 -0.3,0.48 -0.3,1.13 -0.3,1.49 z"
         id="path3633" /><path
         style="fill:#000000;stroke-width:0"
         inkscape:connector-curvature="0"
         d="m 267.42,699.43 0.05,0.07 0.06,0.07 0.06,0.08 0.06,0.08 0.13,0.15 0.06,0.08 0.06,0.07 0.06,0.08 0.06,0.07 0.06,0.07 0.05,0.07 0.03,0.03 0.03,0.03 0.02,0.03 0.03,0.03 0.02,0.03 0.03,0.03 0.02,0.03 0.02,0.02 c 0.31,0.36 0.72,0.51 1.19,0.52 v 0.31 c -0.26,-0.02 -0.56,-0.03 -0.82,-0.03 -0.3,0 -0.82,0.02 -0.95,0.03 v -0.31 c 0.21,-0.02 0.29,-0.15 0.29,-0.31 0,-0.16 -0.1,-0.29 -0.15,-0.35 l -0.62,-0.77 -0.78,1 c -0.09,0.1 -0.09,0.12 -0.09,0.18 0,0.15 0.15,0.24 0.35,0.25 v 0.31 c -0.26,-0.01 -0.91,-0.03 -1.07,-0.03 -0.21,0 -0.68,0.01 -0.95,0.03 v -0.31 c 0.7,0 0.71,-0.01 1.18,-0.61 l 0.98,-1.28 -0.93,-1.18 c -0.48,-0.58 -1.07,-0.6 -1.28,-0.6 v -0.31 c 0.26,0.02 0.57,0.03 0.83,0.03 0.29,0 0.7,-0.02 0.94,-0.03 v 0.31 c -0.22,0.03 -0.28,0.16 -0.28,0.31 0,0.22 0.28,0.55 0.89,1.26 l 0.76,-0.99 c 0.08,-0.11 0.2,-0.27 0.2,-0.33 0,-0.09 -0.08,-0.24 -0.35,-0.25 v -0.31 c 0.3,0.01 0.85,0.03 1.07,0.03 0.27,0 0.66,-0.01 0.96,-0.03 v 0.31 c -0.54,0 -0.72,0.02 -0.95,0.31 z"
         id="path3635" /><path
         style="fill:#000000;stroke-width:0"
         inkscape:connector-curvature="0"
         d="m 271.53,700.83 v 0.65 l -1.43,-0.1 v -0.31 c 0.71,0 0.78,-0.06 0.78,-0.5 v -4.65 c 0,-0.45 -0.11,-0.45 -0.78,-0.45 v -0.3 c 0.34,0.01 0.85,0.03 1.11,0.03 0.27,0 0.78,-0.02 1.13,-0.03 v 0.3 c -0.67,0 -0.78,0 -0.78,0.45 v 1.67 0.09 l 0.14,0.13 c -0.14,0.21 -0.14,0.22 -0.14,0.42 h 0 v 2.21 c 0.29,0.51 0.78,0.8 1.29,0.8 0.72,0 1.33,-0.88 1.33,-2 0,-1.2 -0.7,-2.04 -1.43,-2.04 -0.4,0 -0.78,0.2 -1.05,0.61 l -0.14,-0.13 c 0.05,-0.16 0.47,-0.7 1.23,-0.7 1.18,0 2.22,0.98 2.22,2.26 0,1.26 -0.97,2.24 -2.09,2.24 -0.77,0 -1.19,-0.43 -1.39,-0.65 z"
         id="path3637" /><path
         style="fill:#000000;stroke-width:0"
         inkscape:connector-curvature="0"
         d="m 278.65,694.71 0,0.01 0,0 0,0 0,0.01 0,0 0,0 0,0.01 -0.01,0 0,0 0,0.01 0,0 0,0.01 -0.01,0 0,0.01 -0.01,0 0,0.01 -0.01,0.01 0,0 0,0.01 -0.01,0 0,0 -0.01,0.01 0,0 0,0.01 -0.01,0 0,0.01 -0.01,0 0,0.01 -0.01,0 0,0.01 -0.01,0 0,0.01 -0.01,0.01 0,0 -0.01,0.01 -0.01,0 0,0.01 -0.01,0.01 -0.01,0.01 0,0 -0.01,0.01 -0.01,0.01 c -1.24,1.25 -1.56,3.13 -1.56,4.65 0,1.73 0.38,3.45 1.6,4.7 0.13,0.12 0.13,0.13 0.13,0.17 0,0.07 -0.04,0.09 -0.1,0.09 -0.1,0 -1,-0.67 -1.58,-1.93 -0.51,-1.09 -0.63,-2.2 -0.63,-3.03 0,-0.78 0.11,-1.98 0.66,-3.1 0.6,-1.22 1.45,-1.87 1.55,-1.87 0.06,0 0.1,0.03 0.1,0.1 z"
         id="path3639" /><path
         style="fill:#000000;stroke-width:0"
         inkscape:connector-curvature="0"
         d="m 285.79,699.38 0.03,0 0.04,0 0.03,0 0.01,0 0.02,0 0.01,0 0.02,0.01 0.01,0 0.02,0 0.01,0 0.01,0.01 0.02,0 0.01,0 0.01,0.01 0.01,0 0.01,0.01 0.01,0.01 0.01,0 0.01,0.01 0.01,0.01 0.01,0.01 0,0.01 0.01,0 0,0.01 0,0.01 0.01,0 0,0.01 0,0 0,0.01 0,0.01 0.01,0.01 0,0 0,0.01 0,0.01 0,0.01 0,0.01 0,0.01 c 0,0.2 -0.18,0.2 -0.35,0.2 h -5.38 c -0.17,0 -0.35,0 -0.35,-0.2 0,-0.2 0.18,-0.2 0.35,-0.2 z"
         id="path3641" /><path
         style="fill:#000000;stroke-width:0"
         inkscape:connector-curvature="0"
         d="m 290.47,697.65 0.01,-0.04 0.01,-0.03 0.01,-0.04 0.02,-0.04 0.01,-0.03 0.02,-0.03 0.02,-0.03 0.02,-0.04 0.02,-0.03 0.02,-0.02 0.03,-0.03 0.02,-0.03 0.03,-0.02 0.02,-0.03 0.03,-0.02 0.03,-0.03 0.03,-0.02 0.03,-0.02 0.03,-0.01 0.03,-0.02 0.04,-0.02 0.03,-0.01 0.03,-0.02 0.04,-0.01 0.03,-0.01 0.04,-0.01 0.04,-0.01 0.04,0 0.03,-0.01 0.04,0 0.04,0 0.04,-0.01 c 0.35,0 0.58,0.23 0.74,0.55 0.17,0.36 0.3,0.96 0.3,0.99 0,0.09 -0.09,0.09 -0.12,0.09 -0.1,0 -0.11,-0.04 -0.14,-0.18 -0.14,-0.55 -0.33,-1.23 -0.75,-1.23 -0.21,0 -0.31,0.13 -0.31,0.46 0,0.22 0.12,0.69 0.2,1.03 l 0.28,1.08 c 0.03,0.14 0.13,0.52 0.17,0.67 0.05,0.23 0.15,0.61 0.15,0.67 0,0.18 -0.14,0.27 -0.29,0.27 -0.05,0 -0.31,-0.01 -0.39,-0.35 -0.19,-0.73 -0.62,-2.47 -0.74,-2.99 -0.01,-0.04 -0.41,-0.84 -1.14,-0.84 -0.51,0 -0.61,0.45 -0.61,0.82 0,0.55 0.27,1.34 0.53,2.02 0.12,0.3 0.17,0.44 0.17,0.63 0,0.45 -0.32,0.81 -0.81,0.81 -0.95,0 -1.32,-1.44 -1.32,-1.52 0,-0.1 0.1,-0.1 0.12,-0.1 0.1,0 0.11,0.02 0.16,0.17 0.25,0.87 0.63,1.24 1.01,1.24 0.08,0 0.24,-0.01 0.24,-0.33 0,-0.24 -0.1,-0.53 -0.16,-0.68 -0.37,-0.98 -0.58,-1.6 -0.58,-2.08 0,-0.95 0.68,-1.2 1.22,-1.2 0.66,0 1.02,0.45 1.19,0.67 z"
         id="path3643" /><path
         style="fill:#000000;stroke-width:0"
         inkscape:connector-curvature="0"
         d="m 295.56,699.58 0,0.07 0,0.08 0,0.08 0,0.08 -0.01,0.16 -0.01,0.18 -0.02,0.18 -0.02,0.19 -0.03,0.2 -0.03,0.2 -0.04,0.2 -0.05,0.21 -0.05,0.21 -0.06,0.21 -0.07,0.21 -0.08,0.21 -0.04,0.11 -0.05,0.11 -0.04,0.1 -0.05,0.11 c -0.6,1.22 -1.46,1.86 -1.56,1.86 -0.06,0 -0.1,-0.03 -0.1,-0.09 0,-0.04 0,-0.05 0.19,-0.23 0.98,-0.99 1.54,-2.57 1.54,-4.64 0,-1.7 -0.36,-3.45 -1.6,-4.7 -0.13,-0.12 -0.13,-0.14 -0.13,-0.17 0,-0.06 0.04,-0.1 0.1,-0.1 0.1,0 1,0.68 1.58,1.94 0.51,1.09 0.63,2.19 0.63,3.03 z"
         id="path3645" /></g><g
       style="font-style:normal;font-variant:normal;font-weight:normal;font-stretch:normal;letter-spacing:normal;word-spacing:normal;text-anchor:start;fill:none;stroke:#000000;stroke-linecap:butt;stroke-linejoin:miter;stroke-miterlimit:10.43299961;stroke-opacity:1;stroke-dasharray:none;stroke-dashoffset:0"
       ns0:preamble=""
       ns0:text="$z=\\max(u,0)$"
       text-anchor="start"
       word-spacing="normal"
       letter-spacing="normal"
       font-size-adjust="none"
       font-stretch="normal"
       font-weight="normal"
       font-variant="normal"
       font-style="normal"
       fill-opacity="1"
       fill-rule="evenodd"
       fill="none"
       stroke-opacity="1"
       stroke-dashoffset="0"
       stroke-dasharray="none"
       stroke-miterlimit="10.433"
       stroke-linejoin="miter"
       stroke-linecap="butt"
       stroke="black"
       xml:space="preserve"
       transform="matrix(2,0,0,2,-73.497892,-1276.9527)"
       id="g3834"><path
         id="path3836"
         fill="black"
         stroke-width="0"
         d="M224.76,707.95 L224.8,708 L224.85,708.05 L224.9,708.1 L224.95,708.15 L224.99,708.2 L225.03,708.24 L225.08,708.28 L225.12,708.33 L225.16,708.37 L225.2,708.41 L225.23,708.44 L225.27,708.48 L225.31,708.52 L225.34,708.55 L225.41,708.62 L225.48,708.68 L225.55,708.74 L225.61,708.8 L225.68,708.86 L225.81,708.97 L225.87,709.02 L225.94,709.08 C225.94,709.09,226.56,709.62,226.91,709.98 C227.86,710.9,228.08,711.38,228.08,711.42 C228.08,711.52,227.99,711.52,227.97,711.52 C227.9,711.52,227.87,711.5,227.82,711.41 C227.52,710.93,227.31,710.77,227.07,710.77 C226.84,710.77,226.71,710.92,226.57,711.09 C226.38,711.32,226.21,711.52,225.88,711.52 C225.13,711.52,224.68,710.59,224.68,710.38 C224.68,710.33,224.71,710.27,224.79,710.27 C224.88,710.27,224.9,710.32,224.92,710.38 C225.11,710.84,225.69,710.85,225.77,710.85 C225.98,710.85,226.17,710.78,226.4,710.7 C226.79,710.55,226.9,710.55,227.16,710.55 C226.8,710.12,225.97,709.41,225.78,709.25 L224.88,708.42 C224.21,707.75,223.86,707.18,223.86,707.11 C223.86,707.02,223.96,707.02,223.98,707.02 C224.06,707.02,224.08,707.04,224.14,707.15 C224.37,707.49,224.67,707.76,224.98,707.76 C225.21,707.76,225.31,707.67,225.56,707.38 C225.73,707.17,225.91,707.02,226.2,707.02 C227.18,707.02,227.76,708.28,227.76,708.55 C227.76,708.59,227.72,708.65,227.64,708.65 C227.55,708.65,227.53,708.59,227.5,708.52 C227.27,707.87,226.64,707.68,226.31,707.68 C226.11,707.68,225.93,707.74,225.72,707.81 C225.38,707.94,225.23,707.98,225.02,707.98 C225,707.98,224.85,707.98,224.76,707.95 Z " /><path
         id="path3838"
         fill="black"
         stroke-width="0"
         d="M238.11,710.37 L238.13,710.37 L238.16,710.37 L238.19,710.37 L238.21,710.38 L238.22,710.38 L238.24,710.38 L238.25,710.38 L238.26,710.38 L238.28,710.38 L238.29,710.39 L238.31,710.39 L238.32,710.39 L238.33,710.4 L238.34,710.4 L238.35,710.41 L238.37,710.41 L238.38,710.42 L238.39,710.43 L238.4,710.44 L238.4,710.45 L238.41,710.46 L238.42,710.46 L238.42,710.47 L238.42,710.47 L238.43,710.48 L238.43,710.49 L238.43,710.49 L238.43,710.5 L238.44,710.51 L238.44,710.51 L238.44,710.52 L238.44,710.53 L238.44,710.54 L238.44,710.55 L238.44,710.55 L238.44,710.56 L238.44,710.57 C238.44,710.77,238.26,710.77,238.12,710.77 H232.16 C232.02,710.77,231.83,710.77,231.83,710.57 C231.83,710.37,232.02,710.37,232.17,710.37 Z " /><path
         id="path3840"
         fill="black"
         stroke-width="0"
         d="M238.12,708.45 L238.13,708.45 L238.14,708.45 L238.17,708.45 L238.2,708.45 L238.21,708.45 L238.23,708.45 L238.24,708.45 L238.25,708.45 L238.27,708.45 L238.28,708.46 L238.29,708.46 L238.31,708.46 L238.32,708.47 L238.33,708.47 L238.34,708.48 L238.36,708.48 L238.37,708.49 L238.38,708.49 L238.39,708.5 L238.4,708.51 L238.4,708.52 L238.41,708.52 L238.41,708.53 L238.42,708.54 L238.42,708.54 L238.42,708.55 L238.43,708.55 L238.43,708.56 L238.43,708.57 L238.43,708.57 L238.44,708.58 L238.44,708.59 L238.44,708.59 L238.44,708.6 L238.44,708.61 L238.44,708.62 L238.44,708.63 L238.44,708.64 L238.44,708.65 C238.44,708.84,238.26,708.84,238.11,708.84 H232.17 C232.02,708.84,231.83,708.84,231.83,708.65 C231.83,708.45,232.02,708.45,232.16,708.45 Z " /><path
         id="path3842"
         fill="black"
         stroke-width="0"
         d="M242.88,710.54 V707.88 C242.88,707.43,242.77,707.43,242.11,707.43 V707.12 C242.46,707.14,242.96,707.16,243.23,707.16 C243.49,707.16,244.01,707.14,244.35,707.12 V707.43 C243.68,707.43,243.57,707.43,243.57,707.88 V709.71 C243.57,710.74,244.28,711.3,244.91,711.3 C245.54,711.3,245.65,710.76,245.65,710.2 V707.88 C245.65,707.43,245.54,707.43,244.87,707.43 V707.12 C245.22,707.14,245.73,707.16,246,707.16 C246.26,707.16,246.77,707.14,247.11,707.12 V707.43 C246.45,707.43,246.34,707.43,246.34,707.88 V709.71 C246.34,710.74,247.04,711.3,247.68,711.3 C248.31,711.3,248.42,710.76,248.42,710.2 V707.88 C248.42,707.43,248.31,707.43,247.64,707.43 V707.12 C247.99,707.14,248.49,707.16,248.76,707.16 C249.02,707.16,249.54,707.14,249.88,707.12 V707.43 C249.36,707.43,249.11,707.43,249.1,707.73 V709.63 C249.1,710.48,249.1,710.79,248.79,711.15 C248.65,711.32,248.33,711.52,247.75,711.52 C246.91,711.52,246.48,710.92,246.31,710.54 C246.17,711.41,245.43,711.52,244.98,711.52 C244.26,711.52,243.79,711.09,243.51,710.47 V711.52 L242.11,711.41 V711.1 C242.8,711.1,242.88,711.03,242.88,710.54 Z " /><path
         id="path3844"
         fill="black"
         stroke-width="0"
         d="M253.4,707.88 L253.41,707.84 L253.41,707.81 L253.42,707.77 L253.43,707.73 L253.44,707.69 L253.45,707.66 L253.46,707.62 L253.48,707.59 L253.49,707.55 L253.51,707.52 L253.53,707.48 L253.54,707.45 L253.56,707.42 L253.59,707.38 L253.61,707.35 L253.63,707.32 L253.66,707.3 L253.68,707.27 L253.71,707.24 L253.74,707.22 L253.77,707.2 L253.8,707.17 L253.83,707.15 L253.87,707.14 L253.9,707.12 L253.94,707.11 L253.98,707.09 L254.01,707.08 L254.05,707.08 L254.09,707.07 L254.14,707.07 L254.18,707.07 C254.39,707.07,255,707.2,255,708.01 V708.57 H254.75 V708.01 C254.75,707.43,254.5,707.37,254.39,707.37 C254.06,707.37,254.02,707.82,254.02,707.87 V709.86 C254.02,710.27,254.02,710.66,253.66,711.03 C253.27,711.42,252.78,711.58,252.3,711.58 C251.48,711.58,250.8,711.11,250.8,710.45 C250.8,710.16,251,709.99,251.26,709.99 C251.53,709.99,251.71,710.18,251.71,710.44 C251.71,710.56,251.66,710.89,251.21,710.9 C251.47,711.25,251.96,711.36,252.28,711.36 C252.77,711.36,253.34,710.97,253.34,710.09 V709.72 V709.51 V708.52 C253.34,707.57,252.62,707.23,252.17,707.23 C251.68,707.23,251.27,707.58,251.27,708.08 C251.27,708.62,251.69,709.45,253.34,709.51 H253.34 V709.72 C252.83,709.69,252.13,709.66,251.5,709.36 C250.76,709.02,250.51,708.51,250.51,708.07 C250.51,707.26,251.47,707.02,252.1,707.02 C252.76,707.02,253.21,707.41,253.4,707.88 Z " /><path
         id="path3846"
         fill="black"
         stroke-width="0"
         d="M257.93,709.46 L257.98,709.53 L258.04,709.61 L258.1,709.68 L258.16,709.76 L258.29,709.91 L258.35,709.99 L258.41,710.07 L258.47,710.14 L258.53,710.21 L258.59,710.28 L258.64,710.35 L258.67,710.38 L258.7,710.41 L258.72,710.45 L258.75,710.48 L258.77,710.5 L258.8,710.53 L258.82,710.56 L258.84,710.58 C259.15,710.94,259.56,711.09,260.03,711.1 V711.41 C259.77,711.39,259.47,711.38,259.21,711.38 C258.91,711.38,258.39,711.4,258.26,711.41 V711.1 C258.46,711.08,258.55,710.95,258.55,710.79 C258.55,710.63,258.45,710.5,258.4,710.44 L257.78,709.67 L257,710.67 C256.91,710.77,256.91,710.79,256.91,710.85 C256.91,711,257.06,711.09,257.26,711.1 V711.41 C257,711.4,256.35,711.38,256.19,711.38 C255.98,711.38,255.51,711.39,255.24,711.41 V711.1 C255.94,711.1,255.95,711.09,256.42,710.49 L257.4,709.21 L256.47,708.03 C255.99,707.45,255.4,707.43,255.19,707.43 V707.12 C255.45,707.15,255.76,707.16,256.02,707.16 C256.31,707.16,256.72,707.14,256.96,707.12 V707.43 C256.74,707.46,256.67,707.59,256.67,707.74 C256.67,707.96,256.96,708.29,257.57,709 L258.33,708.01 C258.41,707.9,258.54,707.74,258.54,707.68 C258.54,707.59,258.45,707.44,258.18,707.43 V707.12 C258.48,707.14,259.03,707.16,259.25,707.16 C259.52,707.16,259.91,707.15,260.21,707.12 V707.43 C259.67,707.43,259.49,707.45,259.26,707.74 Z " /><path
         id="path3848"
         fill="black"
         stroke-width="0"
         d="M263.62,704.74 L263.62,704.75 L263.62,704.75 L263.62,704.75 L263.62,704.76 L263.62,704.76 L263.62,704.76 L263.62,704.77 L263.62,704.77 L263.62,704.77 L263.62,704.78 L263.61,704.78 L263.61,704.79 L263.61,704.79 L263.6,704.8 L263.6,704.8 L263.59,704.81 L263.59,704.82 L263.58,704.82 L263.58,704.83 L263.58,704.83 L263.57,704.84 L263.57,704.84 L263.57,704.84 L263.56,704.85 L263.56,704.85 L263.55,704.86 L263.55,704.86 L263.54,704.87 L263.54,704.87 L263.53,704.88 L263.53,704.88 L263.52,704.89 L263.52,704.9 L263.51,704.9 L263.5,704.91 L263.5,704.92 L263.49,704.92 L263.48,704.93 L263.48,704.94 L263.47,704.94 L263.46,704.95 L263.45,704.96 C262.21,706.21,261.89,708.09,261.89,709.61 C261.89,711.34,262.27,713.07,263.49,714.31 C263.62,714.43,263.62,714.45,263.62,714.48 C263.62,714.55,263.58,714.58,263.52,714.58 C263.42,714.58,262.53,713.9,261.94,712.64 C261.43,711.55,261.32,710.44,261.32,709.61 C261.32,708.83,261.42,707.63,261.97,706.51 C262.57,705.29,263.42,704.64,263.52,704.64 C263.58,704.64,263.62,704.67,263.62,704.74 Z " /><path
         id="path3850"
         fill="black"
         stroke-width="0"
         d="M267.68,707.68 L267.7,707.64 L267.71,707.61 L267.72,707.57 L267.74,707.54 L267.75,707.5 L267.77,707.47 L267.79,707.44 L267.81,707.41 L267.83,707.38 L267.85,707.35 L267.88,707.32 L267.9,707.29 L267.93,707.27 L267.95,707.24 L267.98,707.22 L268.01,707.2 L268.04,707.17 L268.07,707.16 L268.1,707.14 L268.13,707.12 L268.16,707.1 L268.2,707.09 L268.23,707.07 L268.27,707.06 L268.3,707.05 L268.34,707.04 L268.38,707.03 L268.41,707.03 L268.45,707.02 L268.49,707.02 L268.53,707.02 L268.57,707.02 C268.92,707.02,269.15,707.24,269.31,707.56 C269.48,707.92,269.61,708.53,269.61,708.55 C269.61,708.65,269.52,708.65,269.49,708.65 C269.39,708.65,269.38,708.6,269.35,708.47 C269.21,707.91,269.02,707.23,268.6,707.23 C268.39,707.23,268.29,707.36,268.29,707.69 C268.29,707.91,268.41,708.38,268.49,708.72 L268.77,709.8 C268.8,709.95,268.9,710.32,268.94,710.47 C268.99,710.7,269.09,711.08,269.09,711.14 C269.09,711.32,268.95,711.41,268.8,711.41 C268.75,711.41,268.49,711.4,268.41,711.06 C268.22,710.33,267.79,708.59,267.67,708.07 C267.65,708.03,267.26,707.23,266.53,707.23 C266.01,707.23,265.91,707.68,265.91,708.05 C265.91,708.6,266.19,709.39,266.45,710.08 C266.57,710.37,266.62,710.51,266.62,710.7 C266.62,711.15,266.3,711.52,265.8,711.52 C264.86,711.52,264.49,710.08,264.49,709.99 C264.49,709.89,264.59,709.89,264.61,709.89 C264.71,709.89,264.72,709.91,264.77,710.07 C265.02,710.93,265.4,711.3,265.77,711.3 C265.86,711.3,266.02,711.29,266.02,710.97 C266.02,710.73,265.91,710.44,265.86,710.29 C265.49,709.31,265.28,708.69,265.28,708.21 C265.28,707.26,265.96,707.02,266.5,707.02 C267.16,707.02,267.52,707.46,267.68,707.68 Z " /><path
         id="path3852"
         fill="black"
         stroke-width="0"
         d="M271.93,707.14 L271.93,707.2 L271.92,707.25 L271.92,707.31 L271.91,707.37 L271.91,707.42 L271.9,707.47 L271.89,707.53 L271.88,707.57 L271.87,707.62 L271.86,707.67 L271.84,707.71 L271.83,707.75 L271.81,707.79 L271.79,707.83 L271.77,707.87 L271.75,707.9 L271.73,707.94 L271.71,707.97 L271.69,707.99 L271.66,708.02 L271.64,708.05 L271.61,708.07 L271.58,708.09 L271.55,708.11 L271.52,708.12 L271.49,708.14 L271.46,708.15 L271.43,708.16 L271.4,708.17 L271.36,708.17 L271.33,708.18 L271.29,708.18 C270.96,708.18,270.76,707.93,270.76,707.65 C270.76,707.38,270.96,707.12,271.29,707.12 C271.41,707.12,271.54,707.16,271.64,707.25 C271.67,707.27,271.68,707.28,271.69,707.28 C271.7,707.28,271.71,707.27,271.71,707.14 C271.71,706.4,271.36,705.8,271.03,705.48 C270.92,705.37,270.92,705.35,270.92,705.32 C270.92,705.25,270.97,705.21,271.02,705.21 C271.13,705.21,271.93,705.97,271.93,707.14 Z " /><path
         id="path3854"
         fill="black"
         stroke-width="0"
         d="M278.91,710.3 L278.91,710.45 L278.91,710.6 L278.9,710.75 L278.9,710.9 L278.89,711.05 L278.88,711.19 L278.86,711.34 L278.84,711.49 L278.82,711.63 L278.79,711.78 L278.76,711.92 L278.72,712.07 L278.68,712.21 L278.63,712.35 L278.57,712.49 L278.54,712.56 L278.51,712.63 C278.05,713.58,277.24,713.74,276.82,713.74 C276.22,713.74,275.5,713.48,275.09,712.56 C274.77,711.87,274.72,711.1,274.72,710.3 C274.72,709.56,274.76,708.66,275.17,707.91 C275.6,707.1,276.32,706.91,276.81,706.91 V707.12 C276.42,707.12,275.84,707.37,275.66,708.33 C275.55,708.92,275.55,709.84,275.55,710.42 C275.55,711.06,275.55,711.71,275.63,712.25 C275.82,713.43,276.56,713.52,276.81,713.52 C277.14,713.52,277.8,713.34,277.98,712.36 C278.08,711.8,278.08,711.05,278.08,710.42 C278.08,709.68,278.08,709,277.98,708.37 C277.83,707.42,277.26,707.12,276.81,707.12 H276.81 V706.91 C277.35,706.91,278.11,707.11,278.54,708.06 C278.86,708.74,278.91,709.52,278.91,710.3 Z " /><path
         id="path3856"
         fill="black"
         stroke-width="0"
         d="M282.19,709.61 L282.19,709.68 L282.19,709.76 L282.19,709.84 L282.19,709.92 L282.18,710.09 L282.17,710.26 L282.15,710.44 L282.13,710.63 L282.1,710.83 L282.07,711.03 L282.03,711.23 L281.98,711.44 L281.93,711.65 L281.87,711.86 L281.8,712.07 L281.72,712.28 L281.68,712.39 L281.63,712.5 L281.58,712.6 L281.53,712.71 C280.94,713.93,280.08,714.58,279.98,714.58 C279.92,714.58,279.88,714.54,279.88,714.48 C279.88,714.45,279.88,714.43,280.07,714.25 C281.05,713.26,281.61,711.68,281.61,709.61 C281.61,707.91,281.25,706.16,280.01,704.91 C279.88,704.79,279.88,704.77,279.88,704.74 C279.88,704.68,279.92,704.64,279.98,704.64 C280.08,704.64,280.98,705.32,281.56,706.58 C282.07,707.67,282.19,708.77,282.19,709.61 Z " /></g></g></svg>