<?xml version="1.0" encoding="UTF-8" standalone="no"?>
<!-- Created with Inkscape (http://www.inkscape.org/) -->

<svg
   xmlns:dc="http://purl.org/dc/elements/1.1/"
   xmlns:cc="http://creativecommons.org/ns#"
   xmlns:rdf="http://www.w3.org/1999/02/22-rdf-syntax-ns#"
   xmlns:svg="http://www.w3.org/2000/svg"
   xmlns="http://www.w3.org/2000/svg"
   xmlns:sodipodi="http://sodipodi.sourceforge.net/DTD/sodipodi-0.dtd"
   xmlns:inkscape="http://www.inkscape.org/namespaces/inkscape"
   id="svg3228"
   version="1.1"
   inkscape:version="0.48.4 r9939"
   width="421.25"
   height="382.5"
   xml:space="preserve"
   sodipodi:docname="CNN.svg"><metadata
     id="metadata3234"><rdf:RDF><cc:Work
         rdf:about=""><dc:format>image/svg+xml</dc:format><dc:type
           rdf:resource="http://purl.org/dc/dcmitype/StillImage" /><dc:title /></cc:Work></rdf:RDF></metadata><defs
     id="defs3232"><marker
       inkscape:stockid="Arrow1Mstart"
       orient="auto"
       refY="0.0"
       refX="0.0"
       id="Arrow1Mstart"
       style="overflow:visible"><path
         id="path3786"
         d="M 0.0,0.0 L 5.0,-5.0 L -12.5,0.0 L 5.0,5.0 L 0.0,0.0 z "
         style="fill-rule:evenodd;stroke:#000000;stroke-width:1.0pt"
         transform="scale(0.4) translate(10,0)" /></marker><marker
       inkscape:stockid="Arrow1Mend"
       orient="auto"
       refY="0.0"
       refX="0.0"
       id="Arrow1Mend"
       style="overflow:visible;"><path
         id="path3789"
         d="M 0.0,0.0 L 5.0,-5.0 L -12.5,0.0 L 5.0,5.0 L 0.0,0.0 z "
         style="fill-rule:evenodd;stroke:#000000;stroke-width:1.0pt;"
         transform="scale(0.4) rotate(180) translate(10,0)" /></marker><marker
       inkscape:stockid="Arrow2Mend"
       orient="auto"
       refY="0.0"
       refX="0.0"
       id="Arrow2Mend"
       style="overflow:visible;"><path
         id="path3807"
         style="fill-rule:evenodd;stroke-width:0.62500000;stroke-linejoin:round;"
         d="M 8.7185878,4.0337352 L -2.2072895,0.016013256 L 8.7185884,-4.0017078 C 6.9730900,-1.6296469 6.9831476,1.6157441 8.7185878,4.0337352 z "
         transform="scale(0.6) rotate(180) translate(0,0)" /></marker></defs><sodipodi:namedview
     pagecolor="#ffffff"
     bordercolor="#666666"
     borderopacity="1"
     objecttolerance="10"
     gridtolerance="10"
     guidetolerance="10"
     inkscape:pageopacity="0"
     inkscape:pageshadow="2"
     inkscape:window-width="1188"
     inkscape:window-height="715"
     id="namedview3230"
     showgrid="false"
     inkscape:zoom="0.61699346"
     inkscape:cx="105.4414"
     inkscape:cy="128.74468"
     inkscape:window-x="53"
     inkscape:window-y="34"
     inkscape:window-maximized="0"
     inkscape:current-layer="g3238" /><g
     id="g3236"
     inkscape:groupmode="layer"
     inkscape:label="ink_ext_XXXXXX"
     transform="matrix(1.25,0,0,-1.25,0,382.5)"><g
       id="g3238"
       transform="scale(0.1,0.1)"><path
         d="m 483.98,2814.09 c 0,-132.54 -107.421,-240 -240,-240 -132.531,0 -239.99953,107.46 -239.99953,240 0,132.54 107.46853,240 239.99953,240 132.579,0 240,-107.46 240,-240 z"
         style="fill:none;stroke:#000000;stroke-opacity:1;stroke-width:20;stroke-linecap:butt;stroke-linejoin:miter;stroke-miterlimit:4;stroke-dasharray:none"
         id="path3240" /><path
         d="m 483.98,2174.09 c 0,-132.54 -107.421,-240 -240,-240 -132.531,0 -239.99953,107.46 -239.99953,240 0,132.54 107.46853,240 239.99953,240 132.579,0 240,-107.46 240,-240 z"
         style="fill:none;stroke:#000000;stroke-opacity:1;stroke-width:20;stroke-linecap:butt;stroke-linejoin:miter;stroke-miterlimit:4;stroke-dasharray:none"
         id="path3242" /><path
         d="m 483.98,1534.09 c 0,-132.54 -107.421,-240 -240,-240 -132.531,0 -239.99953,107.46 -239.99953,240 0,132.54 107.46853,240 239.99953,240 132.579,0 240,-107.46 240,-240 z"
         style="fill:none;stroke:#000000;stroke-opacity:1;stroke-width:20;stroke-linecap:butt;stroke-linejoin:miter;stroke-miterlimit:4;stroke-dasharray:none"
         id="path3244" /><path
         d="m 483.98,894.09 c 0,-132.539 -107.421,-240 -240,-240 -132.531,0 -239.99953,107.461 -239.99953,240 0,132.54 107.46853,240 239.99953,240 132.579,0 240,-107.46 240,-240 z"
         style="fill:none;stroke:#000000;stroke-opacity:1;stroke-width:20;stroke-linecap:butt;stroke-linejoin:miter;stroke-miterlimit:4;stroke-dasharray:none"
         id="path3246" /><path
         d="M 483.98,254.09 C 483.98,121.551 376.559,14.0898 243.98,14.0898 111.449,14.0898 3.98047,121.551 3.98047,254.09 c 0,132.539 107.46853,240 239.99953,240 132.579,0 240,-107.461 240,-240 z"
         style="fill:none;stroke:#000000;stroke-opacity:1;stroke-width:20;stroke-linecap:butt;stroke-linejoin:miter;stroke-miterlimit:4;stroke-dasharray:none"
         id="path3248" /><path
         d="m 2083.98,2174.09 c 0,-132.54 -107.42,-240 -240,-240 -132.53,0 -240,107.46 -240,240 0,132.54 107.47,240 240,240 132.58,0 240,-107.46 240,-240 z"
         style="fill:none;stroke:#000000;stroke-opacity:1;stroke-width:20;stroke-linecap:butt;stroke-linejoin:miter;stroke-miterlimit:4;stroke-dasharray:none"
         id="path3250" /><path
         d="m 2083.98,1534.09 c 0,-132.54 -107.42,-240 -240,-240 -132.53,0 -240,107.46 -240,240 0,132.54 107.47,240 240,240 132.58,0 240,-107.46 240,-240 z"
         style="fill:none;stroke:#000000;stroke-opacity:1;stroke-width:20;stroke-linecap:butt;stroke-linejoin:miter;stroke-miterlimit:4;stroke-dasharray:none"
         id="path3252" /><path
         d="m 2083.98,894.09 c 0,-132.539 -107.42,-240 -240,-240 -132.53,0 -240,107.461 -240,240 0,132.54 107.47,240 240,240 132.58,0 240,-107.46 240,-240 z"
         style="fill:none;stroke:#000000;stroke-opacity:1;stroke-width:20;stroke-linecap:butt;stroke-linejoin:miter;stroke-miterlimit:4;stroke-dasharray:none"
         id="path3254" /><path
         d="m 483.98,2814.09 1120,-640"
         style="fill:none;stroke:#000000;stroke-opacity:1;stroke-width:20;stroke-linecap:butt;stroke-linejoin:miter;stroke-miterlimit:4;stroke-dasharray:none;marker-end:url(#Arrow2Mend)"
         id="path3256" /><path
         d="m 483.98,2174.09 1120,0"
         style="fill:none;stroke:#000000;stroke-opacity:1;stroke-width:20;stroke-linecap:butt;stroke-linejoin:miter;stroke-miterlimit:4;stroke-dasharray:none;marker-end:url(#Arrow2Mend)"
         id="path3258" /><path
         d="m 483.98,1534.09 1120,0"
         style="fill:none;stroke:#000000;stroke-opacity:1;stroke-width:20;stroke-linecap:butt;stroke-linejoin:miter;stroke-miterlimit:4;stroke-dasharray:none;marker-end:url(#Arrow2Mend)"
         id="path3260" /><path
         d="m 483.98,894.09 1120,0"
         style="fill:none;stroke:#000000;stroke-opacity:1;stroke-width:20;stroke-linecap:butt;stroke-linejoin:miter;stroke-miterlimit:4;stroke-dasharray:none;marker-end:url(#Arrow2Mend)"
         id="path3262" /><path
         style="fill:none;stroke:#000000;stroke-width:20;stroke-linecap:butt;stroke-linejoin:miter;stroke-miterlimit:4;stroke-opacity:1;stroke-dasharray:none;marker-end:url(#Arrow2Mend)"
         d="m 483.98,254.09 1120,640"
         id="path4778"
         inkscape:connector-curvature="0" /><path
         style="fill:none;stroke:#000000;stroke-width:20;stroke-linecap:butt;stroke-linejoin:miter;stroke-miterlimit:4;stroke-opacity:1;stroke-dasharray:none;marker-end:none;marker-start:url(#Arrow1Mstart)"
         d="m 1603.98,894.09 -1120,640"
         id="path3264"
         inkscape:connector-curvature="0" /><path
         d="m 483.98,2174.09 1120,-640"
         style="fill:none;stroke:#000000;stroke-opacity:1;stroke-width:20;stroke-linecap:butt;stroke-linejoin:miter;stroke-miterlimit:4;stroke-dasharray:none;marker-end:url(#Arrow2Mend)"
         id="path3266" /><path
         d="m 483.98,1534.09 1120,640"
         style="fill:none;stroke:#000000;stroke-opacity:1;stroke-width:20;stroke-linecap:butt;stroke-linejoin:miter;stroke-miterlimit:4;stroke-dasharray:none;marker-end:url(#Arrow2Mend)"
         id="path3268" /><path
         d="m 483.98,894.09 1120,640"
         style="fill:none;stroke:#000000;stroke-opacity:1;stroke-width:20;stroke-linecap:butt;stroke-linejoin:miter;stroke-miterlimit:4;stroke-dasharray:none;marker-end:url(#Arrow2Mend)"
         id="path3270" /><path
         d="m 2083.98,2174.09 1280,0"
         style="fill:none;stroke:#000000;stroke-opacity:1;stroke-width:20;stroke-linecap:butt;stroke-linejoin:miter;stroke-miterlimit:4;stroke-dasharray:none;marker-end:url(#Arrow2Mend)"
         id="path3272" /><path
         d="m 2083.98,1534.09 1280,0"
         style="fill:none;stroke:#000000;stroke-opacity:1;stroke-width:20;stroke-linecap:butt;stroke-linejoin:miter;stroke-miterlimit:4;stroke-dasharray:none;marker-end:url(#Arrow2Mend)"
         id="path3274" /><path
         d="m 2083.98,894.09 1280,0"
         style="fill:none;stroke:#000000;stroke-opacity:1;stroke-width:20;stroke-linecap:butt;stroke-linejoin:miter;stroke-miterlimit:4;stroke-dasharray:none;marker-end:url(#Arrow2Mend)"
         id="path3276" /></g></g></svg>