<?xml version="1.0" encoding="UTF-8" standalone="no"?>
<!-- Created with Inkscape (http://www.inkscape.org/) -->

<svg
   xmlns:dc="http://purl.org/dc/elements/1.1/"
   xmlns:cc="http://creativecommons.org/ns#"
   xmlns:rdf="http://www.w3.org/1999/02/22-rdf-syntax-ns#"
   xmlns:svg="http://www.w3.org/2000/svg"
   xmlns="http://www.w3.org/2000/svg"
   xmlns:sodipodi="http://sodipodi.sourceforge.net/DTD/sodipodi-0.dtd"
   xmlns:inkscape="http://www.inkscape.org/namespaces/inkscape"
   id="svg3309"
   version="1.1"
   inkscape:version="0.48.4 r9939"
   width="421.25"
   height="383.75"
   xml:space="preserve"
   sodipodi:docname="FNN.eps"><metadata
     id="metadata3315"><rdf:RDF><cc:Work
         rdf:about=""><dc:format>image/svg+xml</dc:format><dc:type
           rdf:resource="http://purl.org/dc/dcmitype/StillImage" /><dc:title></dc:title></cc:Work></rdf:RDF></metadata><defs
     id="defs3313"><marker
       inkscape:stockid="Arrow2Mstart"
       orient="auto"
       refY="0.0"
       refX="0.0"
       id="Arrow2Mstart"
       style="overflow:visible"><path
         id="path3808"
         style="fill-rule:evenodd;stroke-width:0.62500000;stroke-linejoin:round"
         d="M 8.7185878,4.0337352 L -2.2072895,0.016013256 L 8.7185884,-4.0017078 C 6.9730900,-1.6296469 6.9831476,1.6157441 8.7185878,4.0337352 z "
         transform="scale(0.6) translate(0,0)" /></marker><marker
       inkscape:stockid="Arrow2Mend"
       orient="auto"
       refY="0.0"
       refX="0.0"
       id="Arrow2Mend"
       style="overflow:visible;"><path
         id="path3811"
         style="fill-rule:evenodd;stroke-width:0.62500000;stroke-linejoin:round;"
         d="M 8.7185878,4.0337352 L -2.2072895,0.016013256 L 8.7185884,-4.0017078 C 6.9730900,-1.6296469 6.9831476,1.6157441 8.7185878,4.0337352 z "
         transform="scale(0.6) rotate(180) translate(0,0)" /></marker></defs><sodipodi:namedview
     pagecolor="#ffffff"
     bordercolor="#666666"
     borderopacity="1"
     objecttolerance="10"
     gridtolerance="10"
     guidetolerance="10"
     inkscape:pageopacity="0"
     inkscape:pageshadow="2"
     inkscape:window-width="1355"
     inkscape:window-height="795"
     id="namedview3311"
     showgrid="false"
     inkscape:zoom="0.86971831"
     inkscape:cx="110.24214"
     inkscape:cy="228.10897"
     inkscape:window-x="53"
     inkscape:window-y="34"
     inkscape:window-maximized="0"
     inkscape:current-layer="g3319" /><g
     id="g3317"
     inkscape:groupmode="layer"
     inkscape:label="ink_ext_XXXXXX"
     transform="matrix(1.25,0,0,-1.25,0,383.75)"><g
       id="g3319"
       transform="scale(0.1,0.1)"><path
         d="m 483.98,2810 c 0,-132.54 -107.421,-240 -240,-240 -132.531,0 -239.99953,107.46 -239.99953,240 0,132.54 107.46853,240 239.99953,240 132.579,0 240,-107.46 240,-240 z"
         style="fill:none;stroke:#000000;stroke-opacity:1;stroke-width:12;stroke-linecap:butt;stroke-linejoin:miter;stroke-miterlimit:4;stroke-dasharray:none"
         id="path3321" /><path
         d="m 483.98,2170 c 0,-132.54 -107.421,-240 -240,-240 -132.531,0 -239.99953,107.46 -239.99953,240 0,132.54 107.46853,240 239.99953,240 132.579,0 240,-107.46 240,-240 z"
         style="fill:none;stroke:#000000;stroke-opacity:1;stroke-width:12;stroke-linecap:butt;stroke-linejoin:miter;stroke-miterlimit:4;stroke-dasharray:none"
         id="path3323" /><path
         d="m 483.98,1530 c 0,-132.54 -107.421,-240 -240,-240 -132.531,0 -239.99953,107.46 -239.99953,240 0,132.54 107.46853,240 239.99953,240 132.579,0 240,-107.46 240,-240 z"
         style="fill:none;stroke:#000000;stroke-opacity:1;stroke-width:12;stroke-linecap:butt;stroke-linejoin:miter;stroke-miterlimit:4;stroke-dasharray:none"
         id="path3325" /><path
         d="m 483.98,890 c 0,-132.539 -107.421,-240 -240,-240 C 111.449,650 3.98047,757.461 3.98047,890 c 0,132.54 107.46853,240 239.99953,240 132.579,0 240,-107.46 240,-240 z"
         style="fill:none;stroke:#000000;stroke-opacity:1;stroke-width:12;stroke-linecap:butt;stroke-linejoin:miter;stroke-miterlimit:4;stroke-dasharray:none"
         id="path3327" /><path
         d="M 483.98,250 C 483.98,117.461 376.559,10 243.98,10 111.449,10 3.98047,117.461 3.98047,250 c 0,132.539 107.46853,240 239.99953,240 132.579,0 240,-107.461 240,-240 z"
         style="fill:none;stroke:#000000;stroke-opacity:1;stroke-width:12;stroke-linecap:butt;stroke-linejoin:miter;stroke-miterlimit:4;stroke-dasharray:none"
         id="path3329" /><path
         d="m 2083.98,2170 c 0,-132.54 -107.42,-240 -240,-240 -132.53,0 -240,107.46 -240,240 0,132.54 107.47,240 240,240 132.58,0 240,-107.46 240,-240 z"
         style="fill:none;stroke:#000000;stroke-opacity:1;stroke-width:12;stroke-linecap:butt;stroke-linejoin:miter;stroke-miterlimit:4;stroke-dasharray:none"
         id="path3331" /><path
         d="m 2083.98,1530 c 0,-132.54 -107.42,-240 -240,-240 -132.53,0 -240,107.46 -240,240 0,132.54 107.47,240 240,240 132.58,0 240,-107.46 240,-240 z"
         style="fill:none;stroke:#000000;stroke-opacity:1;stroke-width:12;stroke-linecap:butt;stroke-linejoin:miter;stroke-miterlimit:4;stroke-dasharray:none"
         id="path3333" /><path
         d="m 2083.98,890 c 0,-132.539 -107.42,-240 -240,-240 -132.53,0 -240,107.461 -240,240 0,132.54 107.47,240 240,240 132.58,0 240,-107.46 240,-240 z"
         style="fill:none;stroke:#000000;stroke-opacity:1;stroke-width:12;stroke-linecap:butt;stroke-linejoin:miter;stroke-miterlimit:4;stroke-dasharray:none"
         id="path3335" /><path
         d="m 483.98,2810 1120,-640"
         style="fill:none;stroke:#000000;stroke-opacity:1;stroke-width:12;stroke-linecap:butt;stroke-linejoin:miter;stroke-miterlimit:4;stroke-dasharray:none;marker-end:url(#Arrow2Mend)"
         id="path3337" /><path
         d="m 483.98,2170 1120,0"
         style="fill:none;stroke:#000000;stroke-opacity:1;stroke-width:12;stroke-linecap:butt;stroke-linejoin:miter;stroke-miterlimit:4;stroke-dasharray:none;marker-end:url(#Arrow2Mend)"
         id="path3339" /><path
         d="m 483.98,1530 1120,0"
         style="fill:none;stroke:#000000;stroke-opacity:1;stroke-width:12;stroke-linecap:butt;stroke-linejoin:miter;stroke-miterlimit:4;stroke-dasharray:none;marker-end:url(#Arrow2Mend)"
         id="path3341" /><path
         d="m 483.98,890 1120,0"
         style="fill:none;stroke:#000000;stroke-opacity:1;stroke-width:12;stroke-linecap:butt;stroke-linejoin:miter;stroke-miterlimit:4;stroke-dasharray:none;marker-end:url(#Arrow2Mend)"
         id="path3343" /><path
         style="fill:none;stroke:#000000;stroke-width:12;stroke-linecap:butt;stroke-linejoin:miter;stroke-miterlimit:4;stroke-opacity:1;stroke-dasharray:none;marker-end:url(#Arrow2Mend)"
         d="m 483.98,250 1120,640"
         id="path4226" /><path
         style="fill:none;stroke:#000000;stroke-width:12;stroke-linecap:butt;stroke-linejoin:miter;stroke-miterlimit:4;stroke-opacity:1;stroke-dasharray:none;marker-end:none;marker-start:url(#Arrow2Mstart)"
         d="m 1603.98,890 -1120,640"
         id="path3345" /><path
         d="m 483.98,2170 1120,-640"
         style="fill:none;stroke:#000000;stroke-opacity:1;stroke-width:12;stroke-linecap:butt;stroke-linejoin:miter;stroke-miterlimit:4;stroke-dasharray:none;marker-end:url(#Arrow2Mend)"
         id="path3347" /><path
         d="m 483.98,1530 1120,640"
         style="fill:none;stroke:#000000;stroke-opacity:1;stroke-width:12;stroke-linecap:butt;stroke-linejoin:miter;stroke-miterlimit:4;stroke-dasharray:none;marker-end:url(#Arrow2Mend)"
         id="path3349" /><path
         d="m 483.98,890 1120,640"
         style="fill:none;stroke:#000000;stroke-opacity:1;stroke-width:12;stroke-linecap:butt;stroke-linejoin:miter;stroke-miterlimit:4;stroke-dasharray:none;marker-end:url(#Arrow2Mend)"
         id="path3351" /><path
         d="m 2083.98,2170 1280,0"
         style="fill:none;stroke:#000000;stroke-opacity:1;stroke-width:12;stroke-linecap:butt;stroke-linejoin:miter;stroke-miterlimit:4;stroke-dasharray:none;marker-end:url(#Arrow2Mend)"
         id="path3353" /><path
         d="m 2083.98,1530 1280,0"
         style="fill:none;stroke:#000000;stroke-opacity:1;stroke-width:12;stroke-linecap:butt;stroke-linejoin:miter;stroke-miterlimit:4;stroke-dasharray:none;marker-end:url(#Arrow2Mend)"
         id="path3355" /><path
         d="m 2083.98,890 1280,0"
         style="fill:none;stroke:#000000;stroke-opacity:1;stroke-width:12;stroke-linecap:butt;stroke-linejoin:miter;stroke-miterlimit:4;stroke-dasharray:none;marker-end:url(#Arrow2Mend)"
         id="path3357" /><path
         d="m 1603.98,1530 -1120,1280 1120,-1920"
         style="fill:none;stroke:#000000;stroke-opacity:1;stroke-width:12;stroke-linecap:butt;stroke-linejoin:miter;stroke-miterlimit:4;stroke-dasharray:none;marker-end:url(#Arrow2Mend)"
         id="path3371" /><path
         d="m 483.98,2170 1120,-1280"
         style="fill:none;stroke:#000000;stroke-opacity:1;stroke-width:12;stroke-linecap:butt;stroke-linejoin:miter;stroke-miterlimit:4;stroke-dasharray:none;marker-end:url(#Arrow2Mend)"
         id="path3373" /><path
         d="m 483.98,890 1120,1280"
         style="fill:none;stroke:#000000;stroke-opacity:1;stroke-width:12;stroke-linecap:butt;stroke-linejoin:miter;stroke-miterlimit:4;stroke-dasharray:none;marker-end:url(#Arrow2Mend)"
         id="path3375" /><path
         d="m 1603.98,1530 -1120,-1280 1120,1920"
         style="fill:none;stroke:#000000;stroke-opacity:1;stroke-width:12;stroke-linecap:butt;stroke-linejoin:miter;stroke-miterlimit:4;stroke-dasharray:none;marker-end:url(#Arrow2Mend)"
         id="path3377" /></g></g></svg>